<svg id="Icons" xmlns="http://www.w3.org/2000/svg" viewBox="0 0 512 512"><defs><style>.cls-1{fill:#fbdb58;}.cls-2{fill:#efb732;}.cls-3{fill:#8c4735;}.cls-4{fill:#a05740;}.cls-5{fill:#7a2b13;}.cls-6{fill:#b76049;}.cls-7{fill:#c2aacf;}.cls-8{fill:#decee5;}.cls-9{fill:#f4e6f4;}.cls-10{fill:#fff;}</style></defs><title>019-beer-export</title><circle class="cls-1" cx="256" cy="256" r="255.98"/><path class="cls-2" d="M512,255.76A255.63,255.63,0,0,0,408.56,50.44C295-33.81,134.69-10.08,50.44,103.44a254.76,254.76,0,0,0-49.93,136,76.89,76.89,0,0,1,14.24,6.88c23.84,14.74,42,41.9,69.91,44.44,19.15,1.75,37.29-9.24,51.1-22.62s24.87-29.51,39.4-42.12a112.53,112.53,0,0,1,157.7,10c14.17,15.89,26.53,37.44,47.68,40,28.75,3.44,51.22-31.63,80-28.95,9.3.87,17.72,5.66,26.73,8A54.5,54.5,0,0,0,512,255.76Z"/><path class="cls-3" d="M342.08,437.58H169.92a19.93,19.93,0,0,1-18.33-12.06c-8.76-20.43-24-68.11-24-152.79s15.22-132.36,24-152.79a19.93,19.93,0,0,1,18.33-12.06H342.09a19.94,19.94,0,0,1,18.33,12.06c8.75,20.41,24,68,24,152.53,0,84.87-15.22,132.6-24,153A19.94,19.94,0,0,1,342.08,437.58Z"/><path class="cls-4" d="M342.08,437.58H197.75a19.93,19.93,0,0,1-18.33-12.06c-8.75-20.43-24-68.11-24-152.79s15.22-132.36,24-152.79a19.93,19.93,0,0,1,18.33-12.06H342.09a19.94,19.94,0,0,1,18.33,12.06c8.75,20.41,24,68,24,152.53,0,84.87-15.22,132.6-24,153A19.94,19.94,0,0,1,342.08,437.58Z"/><path class="cls-3" d="M331.28,437.58H321.2a4.94,4.94,0,0,1,.08-.93c.05-.23,2.19-12,4.33-38.36s4.26-67.28,4.26-125.82c0-116.56-8.5-163.2-8.59-163.66a4.88,4.88,0,0,1-.09-.93h10.09c1.23,7.16,8.59,54.41,8.59,164.59C339.87,383.12,332.51,430.42,331.28,437.58Z"/><path class="cls-5" d="M322.41,437.58H312.33a4.94,4.94,0,0,1,.08-.93c0-.23,2.19-12,4.33-38.36S321,331,321,272.47c0-116.56-8.5-163.2-8.59-163.66a4.88,4.88,0,0,1-.09-.93h10.09C323.64,115,331,162.29,331,272.47,331,383.12,323.64,430.42,322.41,437.58Z"/><path class="cls-3" d="M208.41,437.58H198.33c-1.23-7.16-8.59-54.41-8.59-164.59,0-110.65,7.36-157.95,8.59-165.11h10.08a4.87,4.87,0,0,1-.08.93c0,.23-2.19,12-4.33,38.36s-4.26,67.28-4.26,125.82c0,116.56,8.5,163.2,8.59,163.66A4.87,4.87,0,0,1,208.41,437.58Z"/><path class="cls-5" d="M199.54,437.58H189.46c-1.23-7.16-8.59-54.41-8.59-164.59,0-110.65,7.36-157.95,8.59-165.11h10.08a4.87,4.87,0,0,1-.08.93c0,.23-2.19,12-4.33,38.36s-4.26,67.28-4.26,125.82c0,116.56,8.5,163.2,8.59,163.66A4.87,4.87,0,0,1,199.54,437.58Z"/><rect class="cls-3" x="259.87" y="107.88" width="10" height="329.7"/><rect class="cls-5" x="251" y="107.88" width="10" height="329.7"/><ellipse class="cls-6" cx="301.7" cy="282.78" rx="30.85" ry="14.11" transform="matrix(0.04, -1, 1, 0.04, 7.87, 573.73)"/><ellipse class="cls-6" cx="299.35" cy="345.76" rx="21.11" ry="9.42" transform="translate(-57.33 632.02) rotate(-87.86)"/><ellipse class="cls-6" cx="366.56" cy="261.82" rx="30.85" ry="14.11" transform="translate(91.26 618.37) rotate(-87.86)"/><ellipse class="cls-6" cx="364.21" cy="324.8" rx="21.11" ry="9.42" transform="translate(26.06 676.65) rotate(-87.86)"/><path class="cls-7" d="M382.58,188.22H129.42a8,8,0,0,1-7.7-10l3.8-14.42a8,8,0,0,1,7.7-5.93H378.78a8,8,0,0,1,7.7,5.93l3.8,14.42A8,8,0,0,1,382.58,188.22Z"/><path class="cls-8" d="M382.58,188.22H163.42a8,8,0,0,1-7.7-10l3.8-14.42a8,8,0,0,1,7.7-5.93H378.78a8,8,0,0,1,7.7,5.93l3.8,14.42A8,8,0,0,1,382.58,188.22Z"/><ellipse class="cls-9" cx="327.46" cy="170.22" rx="23.58" ry="8.38"/><ellipse class="cls-9" cx="284.51" cy="170.22" rx="11.56" ry="5.52"/><path class="cls-7" d="M382.58,357.24H129.42a8,8,0,0,0-7.7,10l3.8,14.42a8,8,0,0,0,7.7,5.93H378.78a8,8,0,0,0,7.7-5.93l3.8-14.42A8,8,0,0,0,382.58,357.24Z"/><path class="cls-8" d="M382.58,357.24H163.42a8,8,0,0,0-7.7,10l3.8,14.42a8,8,0,0,0,7.7,5.93H378.78a8,8,0,0,0,7.7-5.93l3.8-14.42A8,8,0,0,0,382.58,357.24Z"/><ellipse class="cls-9" cx="327.46" cy="375.24" rx="23.58" ry="8.38"/><ellipse class="cls-9" cx="284.51" cy="375.24" rx="11.56" ry="5.52"/><path class="cls-10" d="M169.92,107.86v0l172.16,0a23.55,23.55,0,0,0-31.82-22.18,23.68,23.68,0,0,0-47.17-.5A36.75,36.75,0,0,0,222,82.46a18.32,18.32,0,0,0-36.57,1.72,17.85,17.85,0,0,0,.83,5.45A18.34,18.34,0,0,0,169.92,107.86Z"/><path class="cls-10" d="M192,251.69h0a18.31,18.31,0,0,0,18.31-18.31L201,109.81a9.09,9.09,0,0,0-9.09-8.72h0a9.09,9.09,0,0,0-9.09,8.72l-9.23,123.57A18.32,18.32,0,0,0,192,251.69Z"/><rect class="cls-10" x="173.63" y="264.06" width="36.63" height="52.8" rx="18.31" transform="translate(383.9 580.91) rotate(180)"/></svg>